<svg width="39" height="22" viewBox="0 0 39 22" fill="none" xmlns="http://www.w3.org/2000/svg">
<path d="M19.4951 11.2437C19.2449 10.0609 18.9039 8.57278 17.4189 8.33649C16.6327 8.21138 15.9332 8.88941 15.6778 9.53275C14.8649 11.5808 18.1872 14.5199 19.5515 15.3214" stroke="black" stroke-width="0.5" stroke-linecap="round"/>
<path d="M19.5515 11.218C19.808 10.0255 20.1063 8.57483 21.6293 8.33661C22.4356 8.21049 23.05 8.89405 23.3119 9.54263C24.1456 11.6074 20.9505 14.5134 19.5515 15.3214" stroke="black" stroke-width="0.5" stroke-linecap="round"/>
<path d="M1 1C1.52113 9 1 21 1 21M1 1C8.29577 1.5 19.5 1.5 19.5 1.5C19.5 1.5 30.7042 1.5 38 1M1 1C4.61235 3.44078 10.25 7.25 10.25 7.25L14.875 10.375M1 21L14.875 10.375M1 21L19.5 20.5L38 21M38 21C38 21 37.4789 9 38 1M38 21L24.125 10.375M38 1C34.3877 3.44078 28.75 7.25 28.75 7.25L26.4375 8.8125L24.125 10.375M24.125 10.375L23.5469 10.7656L23.4023 10.8633M14.875 10.375L15.4531 10.7656L15.5977 10.8633" stroke="black" stroke-width="0.5" stroke-linejoin="round"/>
</svg>
