<svg width="44" height="37" viewBox="0 0 44 37" fill="none" xmlns="http://www.w3.org/2000/svg">
<path fill-rule="evenodd" clip-rule="evenodd" d="M16.1762 12.0653C17.5301 11.5275 18.7504 12.1297 19.5159 12.8346C19.8371 13.1305 20.1409 13.5 20.3987 13.8785C20.6762 13.4582 21.0112 13.0627 21.2909 12.7531C21.9885 11.981 23.1485 11.2694 24.546 11.6809L24.5643 11.6863L24.5822 11.6931C25.9356 12.2069 26.6764 13.0225 26.8278 14.0578C26.971 15.0375 26.5596 16.0712 25.9737 16.9961C24.7944 18.8579 23.3717 18.501 21.9594 19.0785C20.0671 19.067 20.4654 21.1302 19.8951 20.8629C18.5853 20.2491 16.5867 19.2348 15.2416 17.489C14.5734 16.6216 14.069 15.63 14.1219 14.6413C14.1777 13.5965 14.8407 12.7164 16.1413 12.0807L16.1584 12.0723L16.1762 12.0653Z" fill="#E50A0D"/>
<path d="M21.0832 31.9965C19.2599 32.7951 18.864 33.1347 15.7923 34.2767C12.3366 35.5615 8.36152 22.6365 7.50847 20.3151C6.33847 17.9065 13.5351 7.33529 15.5974 6.33529C17.6598 5.33529 30.2305 7.95073 31.8604 9.46683C33.8752 11.341 37.0008 19.2269 37.1316 21.9498C37.1571 22.4798 36.9898 23.4816 36.6179 23.9338C35.5688 25.2094 33.4499 26.0163 32.0089 26.7361C28.3921 28.5429 24.787 30.3743 21.0832 31.9965Z" stroke="black" stroke-linecap="round"/>
<path d="M14.3827 34.0489C14.5553 32.8502 15.8278 29.5874 16.2634 28.4394C17.2758 25.7716 18.4954 23.0971 19.8733 20.5993C20.1999 20.0073 20.664 19.1868 21.2979 18.9183C22.0589 18.5959 22.7663 18.6044 23.9712 18.9777C28.1728 20.2796 33.1836 22.337 36.6838 23.5455" stroke="black" stroke-linecap="round"/>
<path d="M7.41754 19.6012C11.3732 20.3804 20.0875 20.3104 20.0875 20.1106" stroke="black" stroke-linecap="round"/>
<path d="M24.3113 18.8056C25.7684 17.2389 27.2505 15.3316 28.3619 13.9697C28.975 13.2184 29.5459 12.409 30.0772 11.596C30.2664 11.3067 31.2808 9.79354 31.2299 9.79126" stroke="black" stroke-linecap="round"/>
<path d="M5.05428 16.9838C3.40298 17.6934 3.48667 20.4161 4.33182 21.5531" stroke="black" stroke-linecap="round"/>
<path d="M1.92685 17.4956C0.984833 18.2839 1.35086 19.7158 1.79533 20.2535" stroke="black" stroke-linecap="round"/>
<path d="M39.9255 21.597C41.2049 22.8594 40.1351 25.3645 38.9338 26.1155" stroke="black" stroke-linecap="round"/>
<path d="M42.6515 23.2128C43.2416 24.2902 42.3792 25.4903 41.7694 25.8292" stroke="black" stroke-linecap="round"/>
</svg>
