<svg width="44" height="30" viewBox="0 0 44 30" fill="none" xmlns="http://www.w3.org/2000/svg">
<path d="M22.1337 18.6746C21.7764 16.9849 21.2892 14.859 19.1678 14.5215C18.0446 14.3428 17.0453 15.3114 16.6805 16.2304C15.5192 19.1562 20.2654 23.355 22.2143 24.5" stroke="black" stroke-linecap="round"/>
<path d="M22.2143 18.6379C22.5808 16.9344 23.0069 14.862 25.1825 14.5217C26.3344 14.3415 27.2122 15.318 27.5863 16.2445C28.7772 19.1942 24.2129 23.3456 22.2142 24.5" stroke="black" stroke-linecap="round"/>
<path d="M43 5V26.5C43 28.1569 41.6569 29.5 40 29.5H4.5C2.84315 29.5 1.5 28.1569 1.5 26.5V5M16.7148 16.5391L16.2891 16.2344L15.4375 15.625L12.0312 13.1875L8.625 10.75L2.60161 6.43969C0.229272 4.74205 1.43026 1 4.34745 1H22.25H40.1526C43.0697 1 44.2707 4.74204 41.8984 6.43968L35.875 10.75L29.0625 15.625L28.2109 16.2344L27.7852 16.5391" stroke="black"/>
</svg>
