<svg width="85" height="82" viewBox="0 0 85 82" fill="none" xmlns="http://www.w3.org/2000/svg">
<path d="M67.7478 61.4881C59.3647 65.676 51.0087 69.9209 42.4238 73.681C20.8901 83.1125 20.2662 70.1984 10.9595 46.6051C8.24762 41.0225 24.9283 16.5199 29.7085 14.2021C34.4887 11.8842 63.6258 17.9464 67.4036 21.4605C72.0736 25.8044 79.3185 44.083 79.6216 50.3942C79.6806 51.6227 79.2928 53.9447 78.4309 54.9927C75.9992 57.9494 71.0878 59.8196 67.7478 61.4881Z" stroke="black" stroke-width="2.5" stroke-linecap="round"/>
<path d="M27.8031 75.498C28.2031 72.7196 30.2425 68.0969 31.2522 65.4361C33.5988 59.2524 36.4257 53.0534 39.6194 47.264C40.3764 45.8917 41.4523 43.9899 42.9216 43.3675C44.6855 42.6203 46.325 42.6399 49.1178 43.5053C58.8564 46.5229 70.4707 51.2917 78.5838 54.0927" stroke="black" stroke-width="2.5" stroke-linecap="round"/>
<path d="M10.749 44.9504C19.6248 47.7026 38.8341 49.2043 38.7956 48.6943" stroke="black" stroke-width="2.5" stroke-linecap="round"/>
<path d="M51.7208 44.2301C54.9069 40.3061 58.0961 35.4811 60.499 32.0444C61.8245 30.1487 63.0406 28.0915 64.163 26.0185C64.5624 25.2809 66.7114 21.4265 66.5909 21.4121" stroke="black" stroke-width="2.5" stroke-linecap="round"/>
</svg>
