<svg width="55" height="31" viewBox="0 0 55 31" fill="none" xmlns="http://www.w3.org/2000/svg">
<path d="M48 5V26.5C48 28.1569 46.6569 29.5 45 29.5H9.5C7.84315 29.5 6.5 28.1569 6.5 26.5V5M34.9141 15.0156L35.7656 14.4062L37.4688 13.1875L40.875 10.75L46.8984 6.43968C49.2707 4.74204 48.0697 1 45.1526 1H27.25H9.34745C6.43026 1 5.22927 4.74205 7.60161 6.43969L13.625 10.75L17.0312 13.1875L18.7344 14.4062L19.1602 14.7109" stroke="black" stroke-width="2"/>
<path d="M7.5 28.5L17 13.5" stroke="black" stroke-width="2"/>
<path d="M47 28.5L37 13.5" stroke="black" stroke-width="2"/>
<path d="M22.7349 12.0258C25.7049 12.4309 26.3869 14.9819 26.8872 17.0095C27.4139 14.9653 28.139 12.4344 31.2653 12.026C32.9205 11.8098 34.1818 12.9816 34.7194 14.0935C36.4308 17.6331 29.872 22.6148 27 24C24.2715 22.626 17.6269 17.5875 19.2528 14.0765C19.7635 12.9737 21.1625 11.8113 22.7349 12.0258Z" fill="#E50A0D" stroke="black" stroke-linecap="round"/>
</svg>
