<svg width="44" height="30" viewBox="0 0 44 30" fill="none" xmlns="http://www.w3.org/2000/svg">
<path d="M21.8872 17.0095C21.3869 14.9819 20.7049 12.4309 17.7349 12.0258C16.1625 11.8113 14.7635 12.9737 14.2528 14.0765C12.6269 17.5875 19.2715 22.626 22 24" stroke="black" stroke-linecap="round"/>
<path d="M22.0001 16.9655C22.5267 14.9213 23.139 12.4344 26.2653 12.026C27.9205 11.8098 29.1818 12.9816 29.7194 14.0935C31.4308 17.6331 24.872 22.6148 22 24" stroke="black" stroke-linecap="round"/>
<path d="M43 5V26.5C43 28.1569 41.6569 29.5 40 29.5H4.5C2.84315 29.5 1.5 28.1569 1.5 26.5V5M29.9141 15.0156L30.7656 14.4062L32.4688 13.1875L35.875 10.75L41.8984 6.43968C44.2707 4.74204 43.0697 1 40.1526 1H22.25H4.34745C1.43026 1 0.229272 4.74205 2.60161 6.43969L8.625 10.75L12.0312 13.1875L13.7344 14.4062L14.1602 14.7109" stroke="black"/>
</svg>
