<svg width="115" height="88" viewBox="0 0 115 88" fill="none" xmlns="http://www.w3.org/2000/svg">
<path fill-rule="evenodd" clip-rule="evenodd" d="M44.2839 26.6333C47.6974 25.2611 50.7872 26.8305 52.7292 28.6598C53.5443 29.4276 54.3159 30.3851 54.9718 31.3653C55.6676 30.2837 56.5091 29.2666 57.212 28.4706C58.9649 26.4854 61.8866 24.6623 65.4215 25.7413L65.468 25.7555L65.5132 25.7733C68.938 27.1161 70.8192 29.2307 71.214 31.9054C71.5876 34.4365 70.0966 37.1278 68.6276 39.5088C65.254 44.0411 67.4515 42.567 63.8909 44.0411C61.3691 43.8025 56.6665 39.2362 52.0319 48.3689C48.7162 46.7685 45.4067 45.1487 41.9881 40.6252C40.2897 38.3779 39.0038 35.8115 39.1254 33.2595C39.254 30.5627 40.9181 28.2986 44.1958 26.6729L44.2391 26.6514L44.2839 26.6333Z" fill="#E50A0D"/>
<path d="M55.4238 73.681C51.1976 75.532 50.2799 76.3191 43.1601 78.9661C35.1504 81.9439 25.9367 51.9857 23.9595 46.6051C21.2476 41.0225 37.9283 16.5199 42.7085 14.2021C47.4887 11.8842 76.6258 17.9464 80.4036 21.4605C85.0736 25.8044 92.3185 44.083 92.6216 50.3942C92.6806 51.6227 92.2928 53.9447 91.4309 54.9927C88.9992 57.9494 84.0878 59.8196 80.7478 61.4881C72.3647 65.6759 64.0087 69.9209 55.4238 73.681Z" stroke="black" stroke-linecap="round"/>
<path d="M39.8932 78.438C40.2932 75.6596 43.2425 68.0969 44.2522 65.4361C46.5988 59.2524 49.4257 53.0534 52.6194 47.264C53.3764 45.8917 54.4523 43.9899 55.9216 43.3675C57.6855 42.6203 59.325 42.6399 62.1177 43.5053C71.8564 46.523 83.4707 51.2917 91.5838 54.0927" stroke="black" stroke-linecap="round"/>
<path d="M23.749 44.9504C32.6248 47.7026 51.8341 49.2043 51.7956 48.6943" stroke="black" stroke-linecap="round"/>
<path d="M64.7208 44.2301C67.9069 40.3061 71.0961 35.4811 73.499 32.0444C74.8245 30.1487 76.0406 28.0914 77.163 26.0185C77.5624 25.2809 79.7114 21.4265 79.5909 21.4121" stroke="black" stroke-linecap="round"/>
<path d="M10.2715 37.8838C6.44399 39.5286 6.63799 45.8393 8.59691 48.4746" stroke="black" stroke-linecap="round"/>
<path d="M3.0214 39.07C0.837951 40.8972 1.68635 44.2161 2.71655 45.4624" stroke="black" stroke-linecap="round"/>
<path d="M106.099 52.5764C109.064 55.5025 106.584 61.3089 103.8 63.0496" stroke="black" stroke-linecap="round"/>
<path d="M112.416 56.3217C113.784 58.8188 111.785 61.6005 110.372 62.3859" stroke="black" stroke-linecap="round"/>
</svg>
