<svg width="85" height="82" viewBox="0 0 85 82" fill="none" xmlns="http://www.w3.org/2000/svg">
<path fill-rule="evenodd" clip-rule="evenodd" d="M31.2839 26.6333C34.6974 25.2611 37.7872 26.8305 39.7292 28.6598C40.5443 29.4276 41.3159 30.3851 41.9718 31.3653C42.6676 30.2837 43.5091 29.2666 44.212 28.4706C45.9649 26.4854 48.8866 24.6623 52.4215 25.7413L52.468 25.7555L52.5132 25.7733C55.938 27.1161 57.8192 29.2307 58.214 31.9054C58.5876 34.4365 57.0966 37.1278 55.6276 39.5088C52.254 44.0411 54.4515 42.567 50.8909 44.0411C48.3691 43.8025 43.6665 39.2362 39.0319 48.3689C35.7162 46.7685 32.4067 45.1487 28.9881 40.6252C27.2897 38.3779 26.0038 35.8115 26.1254 33.2595C26.254 30.5627 27.9181 28.2986 31.1958 26.6729L31.2391 26.6514L31.2839 26.6333Z" fill="#E50A0D"/>
<path d="M67.7478 61.4881C59.3647 65.676 51.0087 69.9209 42.4238 73.681C20.8901 83.1125 20.2662 70.1984 10.9595 46.6051C8.24762 41.0225 24.9283 16.5199 29.7085 14.2021C34.4887 11.8842 63.6258 17.9464 67.4036 21.4605C72.0736 25.8044 79.3185 44.083 79.6216 50.3942C79.6806 51.6227 79.2928 53.9447 78.4309 54.9927C75.9992 57.9494 71.0878 59.8196 67.7478 61.4881Z" stroke="black" stroke-width="2.5" stroke-linecap="round"/>
<path d="M27.8031 75.498C28.2031 72.7196 30.2425 68.0969 31.2522 65.4361C33.5988 59.2524 36.4257 53.0534 39.6194 47.264C40.3764 45.8917 41.4523 43.9899 42.9216 43.3675C44.6855 42.6203 46.325 42.6399 49.1178 43.5053C58.8564 46.5229 70.4707 51.2917 78.5838 54.0927" stroke="black" stroke-width="2.5" stroke-linecap="round"/>
<path d="M10.749 44.9504C19.6248 47.7026 38.8341 49.2043 38.7956 48.6943" stroke="black" stroke-width="2.5" stroke-linecap="round"/>
<path d="M51.7208 44.2301C54.9069 40.3061 58.0961 35.4811 60.499 32.0444C61.8245 30.1487 63.0406 28.0915 64.163 26.0185C64.5624 25.2809 66.7114 21.4265 66.5909 21.4121" stroke="black" stroke-width="2.5" stroke-linecap="round"/>
</svg>
